<svg width="14" height="15" viewBox="0 0 14 15" fill="none" xmlns="http://www.w3.org/2000/svg">
<path d="M14 10V0.666667C14 0.297222 13.6656 0 13.25 0H3C1.34375 0 0 1.19444 0 2.66667V11.5556C0 13.0278 1.34375 14.2222 3 14.2222H13.25C13.6656 14.2222 14 13.925 14 13.5556V13.1111C14 12.9028 13.8906 12.7139 13.7219 12.5917C13.5906 12.1639 13.5906 10.9444 13.7219 10.5167C13.8906 10.3972 14 10.2083 14 10ZM4 3.72222C4 3.63056 4.08438 3.55556 4.1875 3.55556H10.8125C10.9156 3.55556 11 3.63056 11 3.72222V4.27778C11 4.36944 10.9156 4.44444 10.8125 4.44444H4.1875C4.08438 4.44444 4 4.36944 4 4.27778V3.72222ZM4 5.5C4 5.40833 4.08438 5.33333 4.1875 5.33333H10.8125C10.9156 5.33333 11 5.40833 11 5.5V6.05556C11 6.14722 10.9156 6.22222 10.8125 6.22222H4.1875C4.08438 6.22222 4 6.14722 4 6.05556V5.5ZM11.9187 12.4444H3C2.44687 12.4444 2 12.0472 2 11.5556C2 11.0667 2.45 10.6667 3 10.6667H11.9187C11.8594 11.1417 11.8594 11.9694 11.9187 12.4444Z" fill="#3A536B"/>
</svg>
